Coordinates
version=1
nRows=14
nColumns=24
inDegrees=yes

Units are S.I. units (second, meters, Newtons, ...)
Angles are in degrees.

endheader
time	pelvis_tilt	pelvis_list	pelvis_rotation	pelvis_tx	pelvis_ty	pelvis_tz	hip_flexion_r	hip_adduction_r	hip_rotation_r	knee_angle_r	ankle_angle_r	subtalar_angle_r	mtp_angle_r	hip_flexion_l	hip_adduction_l	hip_rotation_l	knee_angle_l	ankle_angle_l	subtalar_angle_l	mtp_angle_l	lumbar_extension	lumbar_bending	lumbar_rotation
      3.91000000	      2.76227080	     -3.35062347	     -1.90240809	     -0.93536218	      1.04095288	     -0.25411141	    -16.87647592	      6.29625815	     -7.80852447	    -15.38807086	      8.15415008	     -6.88766572	      0.00000000	     15.62304617	     -1.73171807	      1.72497593	      0.94930481	     -0.08443635	    -14.14471198	      0.00000000	    -14.78604490	      4.44515307	   -172.64888582
      3.92000000	      2.98482057	     -2.90043473	     -1.80670197	     -0.91959362	      1.04012800	     -0.25620104	    -17.07760186	      5.39751835	     -9.24205380	    -16.95792618	      7.52680109	     -5.79388983	      0.00000000	     15.49282169	     -0.96729795	      2.07305100	     -0.36888593	     -0.87397243	    -15.21849573	      0.00000000	    -14.70140185	      4.12174248	   -172.42059720
      3.93000000	      3.14906095	     -2.32255344	     -1.66830413	     -0.90362193	      1.03937118	     -0.25844126	    -17.16546723	      4.32868009	    -10.81307238	    -18.61874692	      6.57961086	     -4.80851726	      0.00000000	     15.42028286	     -0.05987124	      2.38072135	     -1.81524297	     -1.78823545	    -16.16123902	      0.00000000	    -14.51821531	      3.67658295	   -172.27934280
      3.94000000	      3.24624878	     -1.64217162	     -1.47856350	     -0.88755379	      1.03872868	     -0.26081426	    -17.12528810	      3.12786807	    -12.42551101	    -20.36568891	      5.18958351	     -4.07312178	      0.00000000	     15.40187246	      0.95984078	      2.79933568	     -3.32094758	     -2.90836760	    -17.24483484	      0.00000000	    -14.24578161	      3.13884843	   -172.20222946
      3.95000000	      3.30983028	     -0.86233617	     -1.23261881	     -0.87148512	      1.03829112	     -0.26327976	    -16.97893603	      1.81312860	    -13.97748992	    -22.20365808	      3.20499776	     -3.76929100	      0.00000000	     15.41594056	      2.08954849	      3.27257298	     -4.88706362	     -3.97245514	    -18.38149581	      0.00000000	    -13.94323436	      2.50270103	   -172.21999516
      3.96000000	      3.34457133	     -0.00844408	     -0.92932210	     -0.85551847	      1.03809608	     -0.26577953	    -16.71352485	      0.42465236	    -15.38783691	    -24.14308365	      0.58079233	     -3.94924637	      0.00000000	     15.48124579	      3.29968009	      3.66930175	     -6.54498929	     -4.67179175	    -19.32256045	      0.00000000	    -13.63349573	      1.78441373	   -172.31470756
      3.97000000	      3.36267697	      0.88579941	     -0.57093832	     -0.83972301	      1.03814535	     -0.26828617	    -16.30979251	     -1.01076359	    -16.64119909	    -26.23351328	     -2.60409143	     -4.45122588	      0.00000000	     15.57267260	      4.55118245	      3.92786563	     -8.27128488	     -4.74904971	    -19.88532028	      0.00000000	    -13.34317714	      1.01954280	   -172.52837035
      3.98000000	      3.35100307	      1.76493390	     -0.19138593	     -0.82414307	      1.03840603	     -0.27071652	    -15.73801077	     -2.41713866	    -17.57840938	    -28.46784560	     -6.31619643	     -5.35646678	      0.00000000	     15.64620985	      5.77908441	      4.16746991	     -9.96379050	     -4.39521875	    -20.29638121	      0.00000000	    -13.06070798	      0.25782395	   -172.77068562
      3.99000000	      3.30060641	      2.58043781	      0.17897310	     -0.80885311	      1.03885341	     -0.27298798	    -14.95643156	     -3.73059419	    -18.10913371	    -30.86173589	    -10.41783821	     -6.62097217	      0.00000000	     15.66401277	      6.91593354	      4.33940091	    -11.51815830	     -3.60741526	    -20.42399607	      0.00000000	    -12.79315541	     -0.45550641	   -173.03296758
      4.00000000	      3.18002653	      3.33240479	      0.45545101	     -0.79389466	      1.03941702	     -0.27496647	    -13.88540474	     -4.95738237	    -18.15285411	    -33.45452404	    -14.62660298	     -8.19263043	      0.00000000	     15.63320532	      7.92540037	      4.30473390	    -12.85687842	     -2.35654120	    -20.15081058	      0.00000000	    -12.50796458	     -1.14098498	   -173.19749309
      4.01000000	      2.99633747	      4.01896512	      0.66261814	     -0.77930101	      1.04009911	     -0.27667334	    -12.52791367	     -6.08399928	    -17.81591025	    -36.23276725	    -18.76544899	     -9.92218324	      0.00000000	     15.52553074	      8.80100413	      4.06628854	    -13.91457704	     -0.92453804	    -19.45926954	      0.00000000	    -12.21796571	     -1.79079377	   -173.33842405
      4.02000000	      2.77249045	      4.64791778	      0.72936899	     -0.76507457	      1.04088129	     -0.27804248	    -10.89705664	     -7.09842410	    -17.04293160	    -39.16889508	    -22.69379054	    -11.97245175	      0.00000000	     15.27395229	      9.55495609	      3.81375907	    -14.59176239	      0.45018762	    -18.89547620	      0.00000000	    -11.94533531	     -2.41991052	   -173.39315924
      4.03000000	      2.50650615	      5.24770417	      0.65479142	     -0.75120493	      1.04175792	     -0.27907123	     -9.00694532	     -8.01887804	    -15.93739299	    -42.21678112	    -26.37472618	    -14.31055752	      0.00000000	     14.91325414	     10.20521671	      3.40273636	    -14.92534681	      1.71310524	    -18.16968860	      0.00000000	    -11.68135260	     -3.06103179	   -173.36049864
      4.04000000	      2.24374691	      5.80206481	      0.45188299	     -0.73766644	      1.04274472	     -0.27981269	     -6.94791269	     -8.80082795	    -14.57581928	    -45.28553235	    -29.75716525	    -17.03245991	      0.00000000	     14.41863762	     10.75675664	      2.91339202	    -14.95301851	      2.82338179	    -17.51871246	      0.00000000	    -11.46315808	     -3.68042409	   -173.29051123
